<mxfile host="app.diagrams.net" modified="2022-03-03T04:54:32.568Z" agent="5.0 (Macintosh; Intel Mac OS X 10_15_6) AppleWebKit/605.1.15 (KHTML, like Gecko) Version/14.0.3 Safari/605.1.15" etag="stXm0LHWOGh4tMZd2BJB" version="16.5.6" type="github">
  <diagram id="R4sLrI_bTYaKZkkl9o8A" name="Page-1">
    <mxGraphModel dx="786" dy="545" grid="1" gridSize="10" guides="1" tooltips="1" connect="1" arrows="1" fold="1" page="1" pageScale="1" pageWidth="850" pageHeight="1100" math="0" shadow="0">
      <root>
        <mxCell id="0" />
        <mxCell id="1" parent="0" />
        <mxCell id="ftUDeAKZ4gSvdPwrhnho-1" value="Data Collectors" style="rounded=0;whiteSpace=wrap;html=1;" vertex="1" parent="1">
          <mxGeometry x="100" y="160" width="80" height="40" as="geometry" />
        </mxCell>
        <mxCell id="ftUDeAKZ4gSvdPwrhnho-2" value="Creates" style="rhombus;whiteSpace=wrap;html=1;" vertex="1" parent="1">
          <mxGeometry x="320" y="80" width="80" height="80" as="geometry" />
        </mxCell>
        <mxCell id="ftUDeAKZ4gSvdPwrhnho-3" value="&lt;u&gt;UserID&lt;/u&gt;" style="ellipse;whiteSpace=wrap;html=1;" vertex="1" parent="1">
          <mxGeometry x="20" y="120" width="80" height="40" as="geometry" />
        </mxCell>
        <mxCell id="ftUDeAKZ4gSvdPwrhnho-4" value="&lt;u&gt;reportID&lt;/u&gt;" style="ellipse;whiteSpace=wrap;html=1;" vertex="1" parent="1">
          <mxGeometry x="430" y="100" width="80" height="40" as="geometry" />
        </mxCell>
        <mxCell id="ftUDeAKZ4gSvdPwrhnho-5" value="Report" style="rounded=0;whiteSpace=wrap;html=1;" vertex="1" parent="1">
          <mxGeometry x="470" y="160" width="80" height="40" as="geometry" />
        </mxCell>
        <mxCell id="ftUDeAKZ4gSvdPwrhnho-6" value="geotag" style="ellipse;whiteSpace=wrap;html=1;" vertex="1" parent="1">
          <mxGeometry x="520" y="80" width="80" height="40" as="geometry" />
        </mxCell>
        <mxCell id="ftUDeAKZ4gSvdPwrhnho-7" value="pictureName" style="ellipse;whiteSpace=wrap;html=1;" vertex="1" parent="1">
          <mxGeometry x="590" y="120" width="80" height="40" as="geometry" />
        </mxCell>
        <mxCell id="ftUDeAKZ4gSvdPwrhnho-8" value="details" style="ellipse;whiteSpace=wrap;html=1;" vertex="1" parent="1">
          <mxGeometry x="580" y="180" width="80" height="40" as="geometry" />
        </mxCell>
        <mxCell id="ftUDeAKZ4gSvdPwrhnho-9" value="Account" style="rounded=0;whiteSpace=wrap;html=1;" vertex="1" parent="1">
          <mxGeometry x="320" y="320" width="80" height="40" as="geometry" />
        </mxCell>
        <mxCell id="ftUDeAKZ4gSvdPwrhnho-10" value="Query" style="rhombus;whiteSpace=wrap;html=1;" vertex="1" parent="1">
          <mxGeometry x="320" y="200" width="80" height="80" as="geometry" />
        </mxCell>
        <mxCell id="ftUDeAKZ4gSvdPwrhnho-11" value="&lt;u&gt;accountID&lt;/u&gt;" style="ellipse;whiteSpace=wrap;html=1;" vertex="1" parent="1">
          <mxGeometry x="410" y="390" width="80" height="40" as="geometry" />
        </mxCell>
        <mxCell id="ftUDeAKZ4gSvdPwrhnho-12" value="fname" style="ellipse;whiteSpace=wrap;html=1;" vertex="1" parent="1">
          <mxGeometry x="100" y="90" width="80" height="40" as="geometry" />
        </mxCell>
        <mxCell id="ftUDeAKZ4gSvdPwrhnho-13" value="lname" style="ellipse;whiteSpace=wrap;html=1;" vertex="1" parent="1">
          <mxGeometry x="170" y="120" width="80" height="40" as="geometry" />
        </mxCell>
        <mxCell id="ftUDeAKZ4gSvdPwrhnho-14" value="company" style="ellipse;whiteSpace=wrap;html=1;" vertex="1" parent="1">
          <mxGeometry x="10" y="210" width="80" height="40" as="geometry" />
        </mxCell>
        <mxCell id="ftUDeAKZ4gSvdPwrhnho-15" value="Researcher" style="rounded=0;whiteSpace=wrap;html=1;" vertex="1" parent="1">
          <mxGeometry x="100" y="280" width="80" height="40" as="geometry" />
        </mxCell>
        <mxCell id="ftUDeAKZ4gSvdPwrhnho-16" value="&lt;u&gt;reasearcherID&lt;/u&gt;" style="ellipse;whiteSpace=wrap;html=1;" vertex="1" parent="1">
          <mxGeometry y="330" width="100" height="60" as="geometry" />
        </mxCell>
        <mxCell id="ftUDeAKZ4gSvdPwrhnho-19" value="fname" style="ellipse;whiteSpace=wrap;html=1;" vertex="1" parent="1">
          <mxGeometry x="50" y="410" width="80" height="40" as="geometry" />
        </mxCell>
        <mxCell id="ftUDeAKZ4gSvdPwrhnho-20" value="lname" style="ellipse;whiteSpace=wrap;html=1;" vertex="1" parent="1">
          <mxGeometry x="130" y="390" width="80" height="40" as="geometry" />
        </mxCell>
        <mxCell id="ftUDeAKZ4gSvdPwrhnho-21" value="organisation&lt;br&gt;" style="ellipse;whiteSpace=wrap;html=1;" vertex="1" parent="1">
          <mxGeometry x="180" y="350" width="80" height="40" as="geometry" />
        </mxCell>
        <mxCell id="ftUDeAKZ4gSvdPwrhnho-22" value="field" style="ellipse;whiteSpace=wrap;html=1;" vertex="1" parent="1">
          <mxGeometry x="220" y="310" width="70" height="40" as="geometry" />
        </mxCell>
      </root>
    </mxGraphModel>
  </diagram>
</mxfile>
